<?xml version="1.0" encoding="UTF-8"?>
<svg id="Livello_2" data-name="Livello 2" xmlns="http://www.w3.org/2000/svg" viewBox="0 0 468.9 588.26">
  <defs>
    <style>
      .cls-1 {
        fill: #c71013;
      }

      .cls-2 {
        fill: #010000;
      }

      .cls-3 {
        fill: #ca1013;
      }
    </style>
  </defs>
  <g id="Livello_1-2" data-name="Livello 1">
    <g>
      <path class="cls-3" d="M331.47,392.9c.03.06,1.13-.13,1.32.24,2.14,4.01-.07,6.61.32,10.48.15,1.46,2.66,9.19,3.48,10.17,1.64,1.92,4.72,1.8,6.92,3.48,2.66,2.03,4.86,6.95,7.19,8.82,2.56,2.06,7.31,3.01,9.99,5.22,3.46,2.85,4.8,9.74,9.71,10.2,6.64.62,7.69-13.45,8.28-18.2.76-.16,2.97.24,3.22.01.39-.37-.15-8.94,0-10.81.19-2.37,1.72-5.17,1.57-7.18-.12-1.67-1.56-3.06-1.65-5.64-.12-3.31,1.49-7.13,1.67-10.42,1.08-20.18-2.08-39.81.73-60.13.4-2.86-1.46-8.82,2.49-9.12-.63,49.08.47,98.24,0,147.32-2.95.21-5.06-2.13-7.59-3.21-4.29-1.82-11.89-3.4-15.23-5.58-7.69-5.02-16.21-16.24-22.79-22.85-9.72-9.77-19.53-19.46-29.3-29.19-.58-.63-1.17-1.56-1.15-2.42,0-.17,1.74-1.59.72-3.13-.38-.58-4.44-1.04-5.53-.87-1.06-1.05-2.14-2.18-3.2-3.2,1.34,1.19,3.61-1.02,2.4-2.4-.76-.87-3.25,1.64-2.4,2.4-1.57-1.51-3.29-3.28-4.8-4.8,2.86-4.27-.91-5.05-4.8-4.8-.53-.54-1.06-1.03-1.6-1.6v-3.21c-1-.15-2.3.21-3.2,0-2.89-.65-2.53-1.88-4-3.2,4.5-3.04-3.19-7.42-3.2-3.2-36.99-34.7-71.28-72.06-106.47-108.51-5.29-5.48-11.94-12.83-17.63-17.6-.63-.53-1.6-2.1-2.4-.8,6.64,9.29,13.66,18.33,20.83,27.21,39.7,49.11,86.33,94.86,129.3,141.33,12.82,13.86,25.46,27.95,38.02,42.05l-25.14,2.79c-4.75-.56-9.87-10.26-14.43-12.06-3.87-1.53-14.9-.83-19.68-.74,2.93-3.5.12-8.43.73-10.75.19-.7,4.24-.42,3.27-3.67l2.4-.4c-34.26-36.25-70.08-71.4-104.9-107.27-8.92-9.19-17.49-18.85-26.38-28.07-14.93-15.49-30.68-30.23-44.46-46.81-1.02,1.06-1.13,2.95-1.24,4.36-2.11,26.51.03,58.93.04,86.11-2.37,0-2.1,1.03-2.42,2.79-1.64,8.94-3.13,25.26.23,33.47.51,1.24.19,2.59,2.19,2.17.01,8.26-.05,16.56,0,24.82-2.29-.11-1.99,1.21-2.52,2.68-.76,2.07-3.8,12.18-3.65,13.62.15,1.53,3.88,10.46,6.98,8.51,0,1.24.19,2.89,0,4-.77,4.61-3.51,5.05-5.62,7.59-2.81,3.4-3.48,7.88-9.59,7.62-.27-3.85.04-7.74-.84-11.57-2.98-63.21,4.1-130.27.07-193.03-.76-11.87-4.32-16.34-12.02-24.81s-16.22-14.17-24.45-21.19c-.27,3.95,1.44,8.37,1.9,12.51,1.33,11.81-2.99,17.77,11.8,20.23,1.41.23,6.72-.41,6.72,1.28v96.48c-13.56-18.18-14.26-42.25-12.02-64.05-10.14,8.04-17.87,20.54-21.82,33.02-.86,2.74-3.21,16.01-3.8,16.62-1.37,1.41-1.35-.53-1.67-1.14-7.35-14.37-6.21-34.67-3.52-50.09-13.19,6.53-23.18,17.22-32.91,27.93-.81.89-1.18,2.01-2.72,1.67,3.62-25.81,16.85-49.53,38.04-64.84,1.79-.3,1.17.62,1.02,1.82-.68,5.56-3.33,11.31-3.82,17,5.49-3.2,9.89-10.4,11.59-16.42,6.98-24.69-11-47.46-30.89-59.59L0,162.31l6.76-.85,108.76.2,56.63,69.88c49.29,55.23,99.27,109.99,154.93,158.93l4.38,2.42Z"/>
      <path class="cls-3" d="M81.66,432.13c-5.75-7.7-9.21-18.65-11.62-28.02-4.72-18.38-4.54-35.62-5.21-54.45l-3.62,11.18c-11.93,75.02,38.12,135.65,113.73,139.34,8.46.41,16.82-.84,25.22-.39-9.86,1.94-20.01,4.28-30.04,5.19-75.1,6.87-192.42-25.32-162.7-124.27l2.97-7.03c-1.31,31.8,13.81,63.38,40.59,80.71,3.72,2.4,8.78,5.49,13.07,6.16-13.68-11.34-25.38-25.4-32.72-41.75-11.14-24.8-12.4-51.89-10.53-78.75-3.16,2.93-6.9,5.84-9.58,9.23-2.5,3.16-3.77,7.06-6.42,9.99,1.46-16.89,8.86-38.52,20.82-50.83.76-.78,1.05-1.52,2.38-1.21.49,9.14,6.87,18.01,7.92,26.9,1.23,10.35-1.49,23.94-.75,35.18.6,9.23,3.85,20.42,8.45,28.38.86-12.67-.19-25.28,1.33-37.89,2.01-16.75,7.49-32.68,12.68-48.57,1.99-1.86,4.74,9.28,5.21,10.4,2.92,6.96,6.35,13.63,10.47,19.96,3.64,5.58,8.33,8.18,8.33,15.69v74.86Z"/>
      <path class="cls-1" d="M386.72,302.42c-1.93-.99-2.53,4.39-2.47,6.02.06,1.84.49,2.83,2.47,2.79-.05,2.93.04,5.88,0,8.81-3.95.3-2.09,6.26-2.49,9.12-2.81,20.32.35,39.95-.73,60.13-.18,3.29-1.79,7.11-1.67,10.42.1,2.57,1.53,3.97,1.65,5.64.15,2.01-1.38,4.81-1.57,7.18-.15,1.87.39,10.44,0,10.81-.25.23-2.46-.17-3.22-.01-.59,4.75-1.64,18.83-8.28,18.2-4.91-.46-6.25-7.35-9.71-10.2-2.68-2.21-7.43-3.16-9.99-5.22-2.34-1.88-4.53-6.79-7.19-8.82-2.2-1.68-5.29-1.56-6.92-3.48-.83-.98-3.34-8.71-3.48-10.17-.39-3.87,1.81-6.47-.32-10.48-.19-.36-1.29-.18-1.32-.24-.28-.48-.02-9.44,0-11.21,4.08-.97,3.1,6.1,5.59,7.61,4.05,2.45,7.81-.79,9.07-4.56,2.15-6.45.45-21.89-1.87-28.25-2.52-6.9-10.07-4.66-7.82,3.02.59,2.02,7.64,6.36-1.76,4.57v6.4c.87.97,3.76-4.05,5.81.22,2.58,5.37-2.82,3.73-4.65,3.88-1.45.12-2.59,1.91-4.37,1.51.06-2.48.8-4.58.83-6.78.7-40.65-.67-81.39.06-122.04,22.58-5.34,40.54-20.72,48.17-42.7,1.08-3.1,1.52-6.46,2.42-9.6.24-.83.19-2.42,1.35-2.23,1.26,7.38,2.84,15.3,3.24,22.78,1.57,29-.27,58.01-.83,86.91Z"/>
      <path class="cls-1" d="M232.99,504.99c15.22-5.27,30.25-11.82,43.65-20.81,1.02-.31,1.58.17,1.18,1.18-1.45,3.6-7.5,9.06-8.79,12.03-.43.99.16,1.47,1.18,1.18,2.34-.68,6.9-4.35,9.49-5.73,28.56-15.19,56.64-25.82,89.41-16.27,21.3,6.21,44.36,24.34,47.84,47.44.16,1.04,1.02,4.79-.59,4.99-6.55-18.49-25.15-30.31-44.04-32.81l12.39,8.02c18.62,14.46,24.89,40.03,8.02,58.43-.69-3.02,1.2-6.3,1.23-9.24.04-3.97-2.63-13.12-7.22-13.97-2.57,13.54-13.05,22.87-25.34,27.91-4.34,1.78-8.91,2.45-13.08,4.52,2.51,2.96,5.81,5.04,9.29,6.71l12.3,4.09c-8.68,2.53-17.81,2.9-26.73,1.53-10.98-1.69-21.6-8.09-32.33-9.3-14.96-1.69-27.57,1.77-37.41,13.39-1.05-.51-.07-2.19.24-2.96,7.94-20.06,32.13-34.24,53.01-36.27-2.76-4.18-8.89-4.95-13.61-4.8,4.06-5.52,12.5-6.3,18.82-5.6,7.07.78,13.26,7.86,20.01,3.21,4.01-2.76,4.02-4.85,4.42-9.2.41-4.41,2.69-.68,3.37,1.41,3.06,9.48-1.97,17.65-10.04,22.35l-7.76,3.84c26.2,1.24,39.84-33.63,16.25-47.87-17.22-10.4-41.43-1.93-56.87,8.47l-17.82,14.2c8.79-12.04,21.28-22.14,35.59-26.86,5.11-1.68,10.46-2.26,15.63-3.59.92-.24,2.6.05,2.41-1.18h-16.41c-11.65,0-29.46,10.5-38.76,17.28-9.49,6.92-23.54,20.92-34.99,23.47-1.23.28-1.28.11-1.11-1.11.98-7.14,7.31-16.84,2.4-24.44.08-1.08-.54-2.38-.62-3.59-.13-2.08,1.5-3.29-1.03-5.58-.43-.39-5.71-4.26-6.08-4.33-1.73-.34-6.54,5.63-7.49-.11Z"/>
      <path class="cls-3" d="M212.17,511.4c-.54,3.29,5.76,1.73,5.6-1.6,4.62-1.15,10.14-3.05,15.21-4.8.95,5.74,5.76-.23,7.49.11.37.07,5.64,3.94,6.08,4.33,2.53,2.28.9,3.5,1.03,5.58.08,1.21.7,2.52.62,3.59-.63,8.81-14.5,22.87-21.86,27.38-24.14,14.78-68.95,12.86-95.99,7.6-40.15-7.81-82.09-30.78-96.73-71l27.74,15.09c46.76,21.04,100.81,24.29,150.81,13.72Z"/>
      <path class="cls-3" d="M387.52,103.86c-4.61-4.16-12.24-5.62-18.41-5.61-.12-1.2,2.04-1.39,2.87-1.52,25.88-4.06,56.04.57,76.4,17.93,1.13.96,7.7,7.36,7.99,8.03.44,1-.09,1.4-1.14,1.15-4.34-1.03-9.19-3.5-13.9-4.52-8.56-1.85-18.18-3-26.58-.23,7.55,5.25,15.83,9.22,23.13,14.89,10.94,8.49,20.98,20.02,26.39,32.86,2.62,6.21,5.21,13.55,4.52,20.3-7.23-8.46-13.92-16.95-24.42-21.61,1.98,9.41,6.51,18.16,8.91,27.51,5.27,20.52,5.82,45.53-3.16,65.11-.59,1.28-1.21,3.41-2.94,3.46,14.3-48.7-7.06-109.69-46.47-140.9l-26-16.84h12.81ZM389.92,103.86c-1.12-.58-2.14.51-1.59.78,1.12.58,2.14-.51,1.59-.78Z"/>
      <path class="cls-1" d="M287.43,435.33c.97,3.25-3.08,2.96-3.27,3.67-.62,2.32,2.2,7.24-.73,10.75-.14,0-1.25.84-2.71.86-52.36.82-108.58-3.21-160.26-.1-2.08.13-3.94.55-5.97.84v15.21c-1.31.31-1.85-.27-2.82-.78-1.88-.99-12.5-10.24-13.03-11.82-.38-1.14-.08-2.27-.16-3.41,6.11.25,6.78-4.22,9.59-7.62,2.11-2.54,4.85-2.98,5.62-7.59h173.74Z"/>
      <path class="cls-3" d="M434.75,227.96c-1.87.41-1.29-.24-1.79-1.03-3.06-4.76-4.54-10.81-8.28-15.71-.77-1.01-7.43-8.23-8.33-7.27,4.74,29.01-1.11,58.19-6.66,86.62l-7.75,32.67c-.77-29.22,1.73-58.47.83-87.7-.18-5.72-.47-11.84-.8-17.61-1.19-20.53-4.3-40.91-7.23-61.21,28.85,11.12,41.69,41.67,40.02,71.25Z"/>
      <path class="cls-1" d="M332.27,240.77v-22.82c9.75-3.89,18.81-7.64,25.6-16.03,4.62-5.71,10.43-18.31,10.43-25.6v-12.41c4.11,3.4,11.72,12.74,12.06,18.03.24,3.76-1.3,12.3-2.2,16.26-5.09,22.43-23.52,38.74-45.9,42.58Z"/>
      <path class="cls-1" d="M331.5,211.12c-.84-8.08-4.69-15.48-6.39-23.15,18.9-4.36,26.08-22.03,22.37-40.08,1.11-1.16,13.74,6.58,14.99,9.42.86,1.96,1.75,8.6,1.85,10.96.84,20.11-12.24,40-32.83,42.85Z"/>
      <path class="cls-3" d="M364.7,118.27c9.26.98,23.46,7.42,30.76,13.28,4.69,3.76,16.03,16.87,17.67,22.37.32,1.07-.11,1.5-1.17,1.17-1.95-.6-6.02-4.09-8.39-5.23-3.08-1.49-18.65-7.55-20.85-5.96,3.38,8.29,6.97,17.28,5.2,26.42-6.26-13.24-15.84-24.44-26.02-34.84,3.08-.53,6.35.51,9.35,1.07,1.05.2,1.52-.04,1.05-1.06-.8-1.74-6.26-7.3-7.99-8.83-3.5-3.09-7.96-5.04-11.22-8.4,3.74.28,7.94-.39,11.61,0Z"/>
      <path class="cls-1" d="M325.87,154.7c-.39-3.73-2.42-7.92-3.2-11.6,6.52-.42,12.78.29,19.11,1.7,4.53,14.77.74,31.73-15.13,37.11-13.25,4.49-9.69-9.54-11.18-17.99,4.54-.14,6.55,4.81,10.4,6.4-.38-5.02.52-10.69,0-15.61Z"/>
      <path class="cls-3" d="M406.72,343.25c-1.83.28-1.88-.14-1.44-1.84,1.3-5.03,4.35-11.24,6.03-16.4,6.87-21.1,11.86-40.07,15.69-61.97.17-1,.15-3.88,1.35-3.85,2.28,21.42-.75,42.38-9.71,61.93-3.49,7.62-8.52,14.46-11.91,22.13Z"/>
      <path class="cls-3" d="M429.95,78.25c.16,1.51-1.68.65-2.56.56-7.67-.72-15.76-1.04-23.45-.57-13.3.82-26.25,5.42-39.64,4.79-.63-.61,1.5-5.88,2.97-6.23,20.92-5.07,42.32-6.71,62.68,1.44Z"/>
      <path class="cls-3" d="M331.47,376.08c1.77.4,2.92-1.39,4.37-1.51,1.83-.15,7.23,1.49,4.65-3.88-2.05-4.27-4.94.75-5.81-.22v-6.4c9.4,1.79,2.35-2.54,1.76-4.57-2.25-7.68,5.3-9.93,7.82-3.02,2.32,6.36,4.02,21.8,1.87,28.25-1.25,3.77-5.02,7.01-9.07,4.56-2.49-1.51-1.51-8.58-5.59-7.61.02-1.86-.05-3.74,0-5.6Z"/>
      <path class="cls-1" d="M293.04,387.29c3.89-.25,7.67.54,4.8,4.8-1.53-1.53-3.39-3.36-4.8-4.8Z"/>
      <path class="cls-3" d="M386.72,302.42c-.06,2.93.05,5.88,0,8.81-1.99.04-2.42-.95-2.47-2.79-.05-1.63.55-7.01,2.47-6.02Z"/>
      <path class="cls-1" d="M284.23,379.29c-1.28-1.15-2.14-2.21-3.2-3.2.02-4.22,7.7.17,3.2,3.2Z"/>
      <path class="cls-1" d="M305.85,400.1c1.08-.17,5.15.3,5.53.87,1.01,1.54-.72,2.96-.72,3.13-3.41.22-3.61-2.83-4.8-4Z"/>
      <path class="cls-1" d="M217.78,509.79c.16,3.33-6.15,4.9-5.6,1.6,1.25-.26,3.78-1.15,5.6-1.6Z"/>
      <path class="cls-1" d="M288.24,382.49c.9.2,2.21-.15,3.21,0v3.21c-1.02-1.07-3.47-1.15-3.21-3.2Z"/>
      <path class="cls-3" d="M292.24,150.3c5.57,6.2,11.42,12.79,12,21.62-4.2-3.48-8.56-6.81-13.35-9.46-1.66-.92-9.3-3.59-9.86-4.16-1.08-1.1.08-1.5,1.21-1.62,3.22-.32,8.87,2.78,9.19,2.43,1.77-2-5.03-5.26-6.85-5.55-4.98-.78-11.62-.12-16.36,1.56.29,1.94,6.66.6,4.42,3.21-1.28,1.48-11.55,6.03-14.77,8.45s-10.74,9.2-10.46,13.49c.2,3.04,6.11,8.55,2.86,10.94s-13.7,1.09-17.64-.12c-4.55-1.39-10.67-5.49-11.65-10.36,3.73.13,7.36.23,10.68-1.73,3.64-2.14,12.99-19.5,17.02-24.62,5.78-7.35,12.56-12.91,18.74-19.69.94-1.03,1.21-2.92,1.79-3.41.9-.75,10.06-1.79,12.46-2.35,1.28-.3,4.52-.57,4.94-1.85-3.38-1.24-6.18,0-9.17.03-14.76.12-27.84-.36-41.81,5.42-12.47,5.16-17.3,10.72-13.87,24.96-5.57-.49-10.78-5.44-10.41-11.2-2.53,1.67-6.86,1.07-8.81,1.99-4.71,2.22.87,15.86,2.02,19.61-13.14-4.73-19.07-17.21-18.01-30.8.29-3.75,2.89-16.02,6.4-17.61,7.99-3.62,8.81,4.43,11.21,5.64,3.26,1.65,19.38-10.19,22.42-12.85,1.24-1.08,8.08-7.68,8.42-8.45.99-2.18-1.23-3.56-1.27-5.96-.09-5.25,7.85-15.94,13.35-16.4,2.42-.2,4.72,1.29,6.67.38,27.87-22.81,62.96-43.01,70.49-81.29,1.12-1.41,1.42.14,1.58,1.21,1.26,8.57.73,15.22-1.17,23.62-1.47,6.49-7.15,19.63-11.62,25.21-4.95,6.18-14.29,10.84-20.02,16.41,32.36-8.85,66.2-29.69,73.67-64.84.81-.34,1.59,1.87,1.59,2v16.81c0,13.78-17.59,33.1-27.62,41.23-6.25,5.07-13.37,8.95-19.61,14.02,10.07,3.89,20.56-2.82,29.08-7.75l10.14-7.86c-6.17,22.99-28.73,39.24-50.44,46.44,4.96,4.6,14.11,1.59,19.76-.67,3.55-1.42,11.62-7.14,14.31-7.32,5.97-.39,20.33,3.9,24.38,8.77h-14.81c-1.25,0-7.68,2.02-9.41,2.6-5.52,1.83-10.58,4.98-15.81,7.42-.35,1.76.77,1.01,1.76,1.4,4.77,1.86,8.48,2.6,13.07,5.38,1.15.7,11.49,8.22,9.98,9.63-6.71-1.67-13.43-3.59-20.38-4.03-2.9-.19-26.01.1-26.04,2.83,6.23,6.89,12.28,13.66,11.99,23.62-3.24-1.87-11.33-6.41-14.8-6.41h-11.61ZM243.41,114.27c7.23-7.89,17.48-3.48,25.56-9.26,5.37-3.84,8.05-12.65,13.65-16.77-9.56,1.46-19.78,2.92-27.47,9.35-2.28,1.91-9.51,10.68-10.83,13.19-.59,1.13-1.14,2.14-.91,3.48ZM206.56,136.68c1.86-2.07-3.38-4.62-5.87-4.05-1.37.31-1.44,5.18-1.32,6.45,2.31.34,1.88-2.49,3.94-2.87,1.12-.21,3.12.62,3.26.47Z"/>
      <path class="cls-3" d="M403.93,345.66c.52.27.52.53,0,.8v-.8Z"/>
      <path class="cls-3" d="M404.73,344.06c.52.27.52.53,0,.8v-.8Z"/>
      <path class="cls-3" d="M360.7,59.02c.52.27.52.53,0,.8v-.8Z"/>
      <path class="cls-1" d="M112.89,343.26c0,12.8-.02,25.63,0,38.43-2,.42-1.68-.94-2.19-2.17-3.36-8.21-1.87-24.53-.23-33.47.32-1.76.05-2.8,2.42-2.79Z"/>
      <path class="cls-1" d="M112.89,406.51c.05,8.3.83,16.76.8,24.82-3.1,1.95-6.82-6.98-6.98-8.51-.15-1.45,2.9-11.56,3.65-13.62.54-1.47.23-2.8,2.52-2.68Z"/>
      <path class="cls-1" d="M302.65,396.9c-.85-.76,1.64-3.26,2.4-2.4,1.21,1.38-1.06,3.59-2.4,2.4Z"/>
      <path class="cls-2" d="M261.42,98.26c-1.61.45-1.61,3.54,0,3.99,3.68,1.03,3.68-5.02,0-3.99Z"/>
      <path class="cls-2" d="M389.92,103.86c.54.28-.47,1.36-1.59.78-.54-.28.47-1.36,1.59-.78Z"/>
      <path class="cls-3" d="M144.92,430.53h-21.22c-.08,0-1.2-1.12-1.2-1.2v-68.46h21.22c.08,0,1.2,1.12,1.2,1.2v68.46Z"/>
      <path class="cls-1" d="M172.94,377.68v50.84c0,.29-.82,1.3-.93,1.88l-18.05-.07-1.71-1.12.68-51.52h20.02Z"/>
      <path class="cls-1" d="M200.13,386.52l9.61,40.77-19.16,3.2-8.82-40.79c2.91.28,17.04-4.45,18.37-3.19Z"/>
      <path class="cls-3" d="M144.92,354.46h-22.42v-11.61c0-.23,1.24-2.18,1.6-2.4,1.86-1.13,20.82-.69,20.82,1.6v12.41Z"/>
      <path class="cls-1" d="M152.92,372.08v-11.61c0-.88,1.95-1.15,2.76-1.24,1.97-.23,15.72-.15,16.51.39,1.33.93,1.24,12.46-.45,12.46h-18.82Z"/>
      <path class="cls-1" d="M196.94,372.89l1.62,9.59-18.36,3.14c-.44-3.23-2.27-6.14-1.62-9.51l18.36-3.22Z"/>
      <path class="cls-3" d="M261.42,98.26c3.68-1.03,3.68,5.02,0,3.99-1.61-.45-1.61-3.54,0-3.99Z"/>
    </g>
  </g>
</svg>